# xmcd
# Copyright (c) 1998 CDDB Inc.
#
# Track frame offsets:
#	150
#	20434
#	43611
#	70591
#	96168
#	123089
#	168736
#
# Disc length: 2681 seconds
#
# Revision: 0
# Processed by: cddbd v1.5.1PL0 Copyright (c) Steve Scherf et al.
# Submitted via: AudioCatalyst 2.10full
#
DISCID=530a7707
DTITLE=O. H. Radish Golden Rules - Vody obyali menja tselikom do dushi moyey
DYEAR=1900
DGENRE=
TTITLE0=Dzhinn illjuziy
TTITLE1=Novosti
TTITLE2=Zhaba
TTITLE3=Kukaracha dlja Roberta Burnsa
TTITLE4=Rita Li
TTITLE5=Kitajskiy Blues
TTITLE6=Vse i nichego (live)
EXTD=2003
EXTT0=
EXTT1=
EXTT2=
EXTT3=
EXTT4=
EXTT5=
EXTT6=
PLAYORDER=
